<svg width="28" height="28" viewBox="0 0 28 28" fill="none" xmlns="http://www.w3.org/2000/svg">
<g id="Frame 49">
<path id="Subtract" fill-rule="evenodd" clip-rule="evenodd" d="M1 12.2719C1 6.63949 6.79943 2 13.9907 2C21.1727 2 27 6.63021 27 12.2719C27 17.9136 21.1913 22.5531 14.0093 22.5531C13.2239 22.5492 12.4397 22.4935 11.6617 22.3861L6.39115 25.94C6.3286 25.9937 6.25063 26.0261 6.16845 26.0327C6.06934 26.0325 5.97369 25.9962 5.89936 25.9307C5.84838 25.8793 5.8127 25.8148 5.79631 25.7444C5.77992 25.6739 5.78347 25.6003 5.80657 25.5318L7.03141 20.9571C3.41256 19.1291 1 15.9279 1 12.2719ZM9.5934 9.69227C9.63421 9.53958 9.73005 9.40735 9.86249 9.32109C10.0036 9.2411 10.1644 9.20252 10.3264 9.20974H10.679C10.851 9.20358 11.0213 9.24535 11.1708 9.33037C11.3293 9.43696 11.442 9.59926 11.4863 9.78504L13.3421 15.0277C13.3903 15.1645 13.4305 15.304 13.4628 15.4454C13.4659 15.5041 13.4659 15.5629 13.4628 15.6216C13.4659 15.7121 13.4493 15.8021 13.414 15.8854C13.3788 15.9688 13.3257 16.0434 13.2586 16.1042C13.1936 16.1708 13.1156 16.2233 13.0294 16.2584C12.9432 16.2936 12.8506 16.3105 12.7576 16.3083C12.6144 16.3225 12.4707 16.2882 12.3495 16.2107C12.2283 16.1333 12.1367 16.0173 12.0895 15.8815L11.6997 14.7402H9.25935L8.86963 15.8815C8.82353 16.02 8.73083 16.1382 8.60731 16.2161C8.48379 16.2939 8.33711 16.3265 8.19225 16.3083C8.03534 16.3124 7.88165 16.2633 7.75613 16.1691C7.63385 16.0718 7.55134 15.9333 7.52416 15.7794C7.51923 15.7269 7.51923 15.6741 7.52416 15.6216C7.50822 15.5295 7.50822 15.4354 7.52416 15.3433C7.52416 15.2699 7.55773 15.1917 7.5904 15.1156C7.60317 15.0859 7.6158 15.0564 7.62623 15.0277L9.5934 9.69227ZM10.5213 10.9079L9.63979 13.6916H11.3935L10.5213 10.9079ZM5.54627 10.648H4.12657C3.95061 10.6531 3.77682 10.6081 3.6255 10.5181C3.55832 10.476 3.50056 10.4205 3.45585 10.355C3.41114 10.2895 3.38044 10.2155 3.36569 10.1376C3.36118 10.0882 3.36118 10.0386 3.36569 9.98925C3.36128 9.89684 3.37921 9.80468 3.41798 9.72069C3.45675 9.63669 3.5152 9.56332 3.58838 9.50672C3.75015 9.38956 3.94541 9.32767 4.14513 9.33036H8.42279C8.60015 9.32413 8.77512 9.37275 8.92386 9.46957C8.99262 9.5098 9.0516 9.56485 9.09653 9.63064C9.14146 9.69643 9.17122 9.77135 9.18367 9.85004C9.1882 9.89633 9.1882 9.94297 9.18367 9.98925C9.18805 10.083 9.17015 10.1764 9.13144 10.2619C9.09273 10.3474 9.03431 10.4224 8.96097 10.481C8.80314 10.598 8.60978 10.657 8.41351 10.648H7.0402V15.5288C7.04578 15.6328 7.02969 15.7368 6.99295 15.8342C6.95621 15.9317 6.89963 16.0204 6.82678 16.0949C6.75693 16.166 6.67297 16.2218 6.58028 16.2585C6.48759 16.2953 6.38823 16.3122 6.28859 16.3083C6.11433 16.3132 5.94376 16.2575 5.80608 16.1506C5.67501 16.0461 5.58605 15.8978 5.55555 15.733C5.54638 15.6652 5.54638 15.5966 5.55555 15.5288L5.54627 10.648ZM13.8793 9.42334C13.7391 9.57763 13.6657 9.78111 13.6751 9.98935L13.703 15.2691C13.6962 15.3711 13.6962 15.4734 13.703 15.5754C13.7313 15.7605 13.8313 15.9272 13.9813 16.0393C14.1491 16.1486 14.3476 16.2006 14.5474 16.1877H17.6837C17.8834 16.1904 18.0787 16.1286 18.2404 16.0115C18.3136 15.9549 18.3721 15.8814 18.4108 15.7974C18.4496 15.7134 18.4675 15.6213 18.4631 15.5289V15.3897C18.4489 15.3116 18.4184 15.2375 18.3737 15.1719C18.3289 15.1064 18.2709 15.0509 18.2033 15.0093C18.053 14.916 17.8791 14.8678 17.7022 14.8702H15.1505V9.98935C15.1596 9.92472 15.1596 9.85905 15.1505 9.79441C15.1237 9.62786 15.0381 9.47646 14.9092 9.36761C14.7702 9.26329 14.6006 9.2078 14.4267 9.20983C14.3256 9.20514 14.2247 9.22177 14.1304 9.25853C14.0361 9.29529 13.9505 9.35147 13.8793 9.42334ZM18.6309 9.9894C18.6254 9.78177 18.6982 9.57968 18.835 9.42339C18.9741 9.29702 19.1525 9.2224 19.3401 9.21226C19.5278 9.20211 19.7132 9.25702 19.865 9.36766C19.9967 9.47555 20.0856 9.62688 20.1156 9.79446C20.1201 9.85934 20.1201 9.92453 20.1156 9.9894V12.2627L22.4632 9.5532C22.5536 9.46076 22.6497 9.37408 22.7508 9.29347C22.8461 9.23672 22.9554 9.2077 23.0663 9.20988C23.2285 9.20899 23.3871 9.25756 23.521 9.34909C23.5841 9.39157 23.638 9.44638 23.6794 9.51016C23.7209 9.57393 23.749 9.64537 23.7622 9.72027C23.766 9.73864 23.766 9.75763 23.7622 9.776C23.7577 9.79742 23.7577 9.81949 23.7622 9.8409C23.7619 9.93854 23.7363 10.0345 23.688 10.1193C23.6388 10.2091 23.5796 10.2931 23.5117 10.3698L21.9714 12.0586L23.8272 14.9351V15.0279C23.9235 15.1609 23.9987 15.3081 24.0499 15.4641V15.5104C24.0606 15.6179 24.0451 15.7265 24.0047 15.8267C23.9643 15.9269 23.9002 16.0157 23.8179 16.0857C23.6631 16.2027 23.4737 16.2648 23.2797 16.2621C23.1508 16.2674 23.0228 16.2385 22.9086 16.1785C22.785 16.0956 22.6831 15.9842 22.6116 15.8537L20.8857 13.07L20.0599 13.933V15.4825C20.0654 15.6902 19.9926 15.8923 19.8557 16.0486C19.7824 16.1202 19.6952 16.1762 19.5994 16.2129C19.5037 16.2496 19.4015 16.2664 19.299 16.2621C19.1278 16.2657 18.9606 16.2099 18.8258 16.1043C18.6947 15.9998 18.6057 15.8516 18.5752 15.6868C18.5661 15.619 18.5661 15.5503 18.5752 15.4825L18.6309 9.9894Z" fill="white"/>
</g>
</svg>
