<svg width="28" height="28" viewBox="0 0 28 28" fill="none" xmlns="http://www.w3.org/2000/svg">
<g id="Frame 47">
<path id="Vector" d="M13.9913 4C13.9913 4 5.24018 4.00001 3.04375 4.57074C1.86771 4.89933 0.899337 5.86772 0.570737 7.06106C1.24753e-05 9.25748 0 13.8061 0 13.8061C0 13.8061 1.24753e-05 18.372 0.570737 20.5338C0.899337 21.7271 1.85042 22.6782 3.04375 23.0068C5.25747 23.5949 13.9913 23.5949 13.9913 23.5949C13.9913 23.5949 22.7598 23.5949 24.9562 23.0241C26.1495 22.6955 27.1006 21.7617 27.4119 20.5511C27.9999 18.372 28 13.8234 28 13.8234C28 13.8234 28.0172 9.25748 27.4119 7.06106C27.1006 5.86772 26.1495 4.91665 24.9562 4.60534C22.7598 4.00003 13.9913 4 13.9913 4ZM11.2068 9.60356L18.488 13.8061L11.2068 17.9913V9.60356Z" fill="white"/>
</g>
</svg>
