<svg width="28" height="28" viewBox="0 0 28 28" fill="none" xmlns="http://www.w3.org/2000/svg">
<g id="Frame 50">
<path id="Subtract" fill-rule="evenodd" clip-rule="evenodd" d="M22.5818 2H5.40989C2.97944 2 1 3.98779 1 6.40989V17.0838C1 19.5143 2.98779 21.4937 5.40989 21.4937H11.4735L12.5175 23.2978L13.5448 25.0768C13.7286 25.4025 14.1963 25.4025 14.3884 25.0768L15.4157 23.2978L16.4597 21.4937H22.5901C25.0206 21.4937 27 19.5059 27 17.0838V6.41825C27 3.98779 25.0122 2 22.5818 2ZM15.1991 9.81754C13.8711 9.81754 12.7937 10.8783 12.7937 12.1895C12.7937 13.5008 13.8711 14.5615 15.1991 14.5615C16.527 14.5615 17.6045 13.5008 17.6045 12.1895C17.6045 10.8783 16.5354 9.81754 15.1991 9.81754ZM15.1991 13.3254C14.5643 13.3254 14.0465 12.8159 14.0465 12.1895C14.0465 11.5631 14.5643 11.0536 15.1991 11.0536C15.8338 11.0536 16.3516 11.5631 16.3516 12.1895C16.3516 12.8159 15.8422 13.3254 15.1991 13.3254ZM6.21182 10.3604C6.58766 10.018 7.07208 9.81755 7.58991 9.81755C8.79261 9.81755 9.7531 10.8866 9.7531 12.1979C9.7531 13.5092 8.78426 14.5699 7.58991 14.5699C7.06373 14.5699 6.58766 14.3611 6.21182 14.027V14.453H4.87549V8.39769H6.21182V10.3604ZM6.22017 12.6573C6.40392 13.0832 6.82987 13.3755 7.32265 13.3755C7.99081 13.3755 8.52534 12.8494 8.52534 12.1895C8.52534 11.5297 7.99081 11.0035 7.32265 11.0035C6.82987 11.0035 6.40392 11.2959 6.22017 11.7218C6.15336 11.8638 6.11995 12.0225 6.11995 12.1895C6.11995 12.3566 6.16171 12.5153 6.22017 12.6573ZM21.7719 9.91779V10.2936C21.3961 10.0013 20.9283 9.82591 20.4272 9.82591C19.1995 9.82591 18.2056 10.8532 18.2056 12.1144C18.2056 13.3755 19.1995 14.4029 20.4272 14.4029C20.9367 14.4029 21.4044 14.2275 21.7719 13.9351V14.5699C21.7719 14.5699 21.6383 15.1963 20.7028 15.1963V16.3739C20.7028 16.3739 21.7134 16.4909 22.6155 15.5888C22.6155 15.5888 23.0331 15.1462 23.1249 14.5615V9.91779H21.7719ZM20.6778 13.2753C20.0013 13.2753 19.4584 12.7491 19.4584 12.106C19.4584 11.4629 20.0096 10.9367 20.6778 10.9367C21.1538 10.9367 21.5715 11.204 21.7719 11.5882C21.8554 11.7469 21.8972 11.9223 21.8972 12.106C21.8972 12.2898 21.8471 12.4735 21.7719 12.6239C21.5715 13.0164 21.1538 13.2753 20.6778 13.2753ZM9.90336 9.49182V8.28077C9.90336 8.28077 10.7887 8.16384 11.5738 9.09092C11.5738 9.09092 11.9329 9.54193 12.0164 10.1433V10.1767V14.4529H10.6383V10.1767C10.5214 9.57534 9.90336 9.49182 9.90336 9.49182Z" fill="white"/>
</g>
</svg>
