<svg width="28" height="28" viewBox="0 0 28 28" fill="none" xmlns="http://www.w3.org/2000/svg">
<g id="Frame 48">
<path id="Subtract" fill-rule="evenodd" clip-rule="evenodd" d="M14 2C20.6274 2 26 7.37258 26 14C26 19.9895 21.6118 24.954 15.875 25.8542V17.4688H18.6711L19.2031 14H15.875V11.749C15.875 11.0373 16.1365 10.339 16.8961 10.0344C17.1493 9.93282 17.4579 9.875 17.8306 9.875H19.3438V6.92188C19.3438 6.92188 19.2579 6.90723 19.1087 6.88526C18.6609 6.81934 17.6423 6.68751 16.6576 6.68751C16.3149 6.68751 15.9871 6.71346 15.6758 6.76476C13.4966 7.12385 12.125 8.72469 12.125 11.3563V14H9.07813H9.07813V17.4688L9.07813 17.4688H12.125V25.8542C6.38822 24.954 2 19.9895 2 14C2 7.37258 7.37258 2 14 2Z" fill="white"/>
</g>
</svg>
